# xmcd
#
# Track frame offsets: 
#        150
#        20887
#        38512
#        59112
#        81073
#        101385
#        116347
#        128885
#        146190
#        165852
#        185477
#        200514
#        215189
#        233489
#        251064
#        267464
#        284964
#
# Disc length: 4030 seconds
#
# Revision: 0
# Processed by: cddbd v1.5.2PL0 Copyright (c) Steve Scherf et al.
# Submitted via: ExactAudioCopy v0.95a5
#
DISCID=050fbc11
DTITLE=邝美云 - 今夜你在那儿过夜
DYEAR=1998
DGENRE=Pop
TTITLE0=我和春天有个约会
TTITLE1=未曾深爱已无情
TTITLE2=冰冻的女人
TTITLE3=昨天你在那儿过夜
TTITLE4=堆积情感
TTITLE5=再坐一会
TTITLE6=星期六约会
TTITLE7=只有情永在
TTITLE8=心声
TTITLE9=伤心的我
TTITLE10=寂寞如风
TTITLE11=无悔爱你一生
TTITLE12=思想扑火
TTITLE13=人间有情
TTITLE14=别假装舍不得
TTITLE15=单身香水瓶
TTITLE16=姐姐哥哥
EXTD=
EXTT0=
EXTT1=
EXTT2=
EXTT3=
EXTT4=
EXTT5=
EXTT6=
EXTT7=
EXTT8=
EXTT9=
EXTT10=
EXTT11=
EXTT12=
EXTT13=
EXTT14=
EXTT15=
EXTT16=
PLAYORDER=
